# xmcd CD database file
#
# Track frame offsets:
#	150
#	18965
#	35835
#	53855
#	74605
#	95285
#	113335
#	129365
#	148255
#	174315
#
# Disc length: 2589 seconds
#
# Revision: 0
# Processed by: cddbd v1.5.1PL0 Copyright (c) Steve Scherf et al.
# Submitted via: CDex 1.51
#
DISCID=850a1b0a
DTITLE=石井聖子 - Selon la lune…
DYEAR=1998
DGENRE=JPop
TTITLE0=月挑(Original Version)
TTITLE1=ジレンマ
TTITLE2=困っちゃうな
TTITLE3=笑顔
TTITLE4=ずっとそばで…
TTITLE5=聖なる夜に想うこと
TTITLE6=ありがとう
TTITLE7=砂時計
TTITLE8=今もいつも
TTITLE9=月挑(Album Version)
EXTD=YEAR: 1998
EXTT0=
EXTT1=
EXTT2=
EXTT3=
EXTT4=
EXTT5=
EXTT6=
EXTT7=
EXTT8=
EXTT9=
PLAYORDER=
